# xmcd
#
# Track frame offsets:
#       150
#       21719
#       47382
#       69655
#       88645
#       109016
#       127376
#       149145
#       170911
#       189326
#       208683
#       227319
#       246531
#       267683
#
# Disc length: 3828 seconds
#
# Revision: 1
# Processed by: cddbd v1.5.1PL0 Copyright (c) Steve Scherf et al.
# Submitted via: WaveLab 4.01
#
DISCID=e00ef20e
DTITLE=Attila Fias - I've Got You Under My Skin
DYEAR=1900
DGENRE=
TTITLE0=I've Got You Under My Skin
TTITLE1=Love For Sale
TTITLE2=Night And Day
TTITLE3=Let's Do It, Let's Fall In Love
TTITLE4=In The Still Of the Night
TTITLE5=Begin the Beguine
TTITLE6=Too Darn Hot
TTITLE7=Just One of Those Things
TTITLE8=Miss Otis Regrets
TTITLE9=You'd Be So Nice to Come Home To
TTITLE10=I Love Paris
TTITLE11=Don't Fence Me In
TTITLE12=Anything Goes
TTITLE13=I Get A Kick Out of You
EXTD=
EXTT0=
EXTT1=
EXTT2=
EXTT3=
EXTT4=
EXTT5=
EXTT6=
EXTT7=
EXTT8=
EXTT9=
EXTT10=
EXTT11=
EXTT12=
EXTT13=
PLAYORDER=
